<svg xmlns="http://www.w3.org/2000/svg" viewBox="0 0 512 512" width="512" height="512">
  <title>docsweep</title>
  <defs>
    <linearGradient id="bg" x1="40" y1="20" x2="472" y2="492" gradientUnits="userSpaceOnUse">
      <stop offset="0" stop-color="#ff7eb6"/>
      <stop offset="1" stop-color="#a974ff"/>
    </linearGradient>
    <radialGradient id="glow" cx="0.3" cy="0.24" r="0.95">
      <stop offset="0" stop-color="#ffffff" stop-opacity="0.30"/>
      <stop offset="0.55" stop-color="#ffffff" stop-opacity="0"/>
    </radialGradient>
    <linearGradient id="head" x1="176" y1="300" x2="336" y2="410" gradientUnits="userSpaceOnUse">
      <stop offset="0" stop-color="#ffffff"/>
      <stop offset="1" stop-color="#f3e9ff"/>
    </linearGradient>
  </defs>
  <rect width="512" height="512" rx="104" fill="url(#bg)"/>
  <rect width="512" height="512" rx="104" fill="url(#glow)"/>
  <!-- swept specks, upper-left -->
  <path d="M150,150 Q150,176 176,176 Q150,176 150,202 Q150,176 124,176 Q150,176 150,150 Z" fill="#ffb13b"/>
  <path d="M108,214 Q108,232 126,232 Q108,232 108,250 Q108,232 90,232 Q108,232 108,214 Z" fill="#37d0a6"/>
  <circle cx="190" cy="116" r="10" fill="#ffffff" opacity="0.92"/>
  <!-- broom -->
  <g transform="rotate(30 256 256)">
    <rect x="243" y="92" width="26" height="190" rx="13" fill="#ffffff"/>
    <rect x="212" y="266" width="88" height="32" rx="14" fill="#ffffff"/>
    <path d="M224,300 L288,300 L336,400 Q316,420 296,400 Q276,420 256,400 Q236,420 216,400 Q196,420 176,400 Z" fill="url(#head)"/>
    <path d="M256,304 L256,402 M232,306 L208,400 M280,306 L304,400" stroke="#c9a7f5" stroke-width="7" stroke-linecap="round" opacity="0.55"/>
  </g>
</svg>
