<svg xmlns="http://www.w3.org/2000/svg" viewBox="0 0 512 512" width="512" height="512">
  <title>docSweep</title>
  <defs>
    <linearGradient id="bg" x1="40" y1="20" x2="472" y2="492" gradientUnits="userSpaceOnUse">
      <stop offset="0" stop-color="#ff7eb6"/>
      <stop offset="1" stop-color="#a974ff"/>
    </linearGradient>
    <radialGradient id="glow" cx="0.3" cy="0.24" r="0.95">
      <stop offset="0" stop-color="#ffffff" stop-opacity="0.30"/>
      <stop offset="0.55" stop-color="#ffffff" stop-opacity="0"/>
    </radialGradient>
    <linearGradient id="sw" x1="70" y1="200" x2="442" y2="320" gradientUnits="userSpaceOnUse">
      <stop offset="0" stop-color="#ffffff"/>
      <stop offset="1" stop-color="#fbeeff"/>
    </linearGradient>
  </defs>
  <rect width="512" height="512" rx="104" fill="url(#bg)"/>
  <rect width="512" height="512" rx="104" fill="url(#glow)"/>
  <!-- sweep arc -->
  <path d="M82,250 Q256,470 430,250 Q412,238 394,250 Q256,392 118,250 Q100,238 82,250 Z" fill="url(#sw)"/>
  <!-- sparkles -->
  <path d="M256,96 Q256,150 310,150 Q256,150 256,204 Q256,150 202,150 Q256,150 256,96 Z" fill="#ffffff"/>
  <path d="M158,170 Q158,200 188,200 Q158,200 158,230 Q158,200 128,200 Q158,200 158,170 Z" fill="#ffb13b"/>
  <path d="M360,176 Q360,202 386,202 Q360,202 360,228 Q360,202 334,202 Q360,202 360,176 Z" fill="#37d0a6"/>
</svg>
